<svg xmlns="http://www.w3.org/2000/svg" xmlns:xlink="http://www.w3.org/1999/xlink" viewBox="0 0 2000 665.13"><defs><style>.cls-1{fill:#fff;}.cls-2{fill:#363d48;}.cls-3{fill:#62a5c0;}.cls-4{fill:url(#linear-gradient);}.cls-5{fill:url(#linear-gradient-2);}.cls-6{fill:url(#linear-gradient-3);}.cls-7{fill:url(#linear-gradient-4);}</style><linearGradient id="linear-gradient" x1="1342.97" y1="23.48" x2="1775.7" y2="23.48" gradientUnits="userSpaceOnUse"><stop offset="0.32" stop-color="#62a5c0"/><stop offset="0.92" stop-color="#47686f"/></linearGradient><linearGradient id="linear-gradient-2" x1="593.83" y1="304.11" x2="866.45" y2="304.11" gradientTransform="translate(1672.4 1095.03) rotate(-90)" gradientUnits="userSpaceOnUse"><stop offset="0" stop-color="#62a5c0"/><stop offset="1" stop-color="#47686f"/></linearGradient><linearGradient id="linear-gradient-3" x1="1793.12" y1="205.12" x2="1987.38" y2="205.12" gradientUnits="userSpaceOnUse"><stop offset="0.36" stop-color="#80b541"/><stop offset="1" stop-color="#b8d672"/></linearGradient><linearGradient id="linear-gradient-4" x1="748.22" y1="-758.81" x2="1073.62" y2="-758.81" gradientTransform="matrix(0, -1, -1, 0, 1040.35, 1062.23)" gradientUnits="userSpaceOnUse"><stop offset="0.62" stop-color="#80b541"/><stop offset="0.9" stop-color="#b8d672"/></linearGradient></defs><title>Windward_bg_rect_2000x665px</title><g id="Layer_2" data-name="Layer 2"><path class="cls-1" d="M1776.13,665.13H0V223.87C0,100.23,100.23,0,223.87,0H1775.7l16.37,205.12L2000,228.58V441.27C2000,564.91,1899.77,665.13,1776.13,665.13Z"/><path class="cls-2" d="M225.1,388.35,262.82,268.7c10.06-31.87,12-44.54,12.35-44.54h.31c.33,0,2.62,12.37,12.7,44.54l37.7,119.65H349.3l77.06-227.58H398.7L347.35,314.54c-6.18,19.5-9.43,33.17-9.76,33.17h-.33c-.33,0-2.92-13.67-9.74-33.17L287.19,191.32H263.8L223.47,314.54c-6.8,19.5-9.41,33.17-9.74,33.17h-.33c-.33,0-3.58-13.67-9.76-33.17L152.28,160.77H124.65l77,227.58Z"/><rect class="cls-2" x="459.82" y="160.77" width="26.64" height="227.58"/><path class="cls-2" d="M573.59,269c0-36.41-1-64.7-.64-64.7h.31c.34,0,14.64,20.81,34.15,47.8L708.52,388.35h25V160.77H706.88V280.41c0,32.5,1,63.07.66,63.07h-.32c-.33,0-16.92-23.73-34.13-46.82L572,160.77h-25V388.35h26.66Z"/><path class="cls-2" d="M889.89,160.77H794V388.35h53.79l25-25H820.66V185.8h69.24c43.71,0,80.73,27.21,88.75,71.7l22.06-22.06C984.48,189.82,941.07,160.77,889.89,160.77Z"/><path class="cls-2" d="M1124.76,269.23l-28,107.31c-5.52,21.45-8.79,36.72-9.09,36.72h-.34c-.33,0-3.9-15.27-11.7-36.72l-31.53-85.83h-27.61l-37,37-17.92,48.79c-7.8,21.45-11.4,36.72-11.69,36.72h-.33c-.33,0-3.58-15.27-9.12-36.72l-2-7.72L897,410.26l26.22,86.55h51.37l33.8-105c7.17-22.43,9.76-38.35,10.09-38.35h.33c.33,0,2.93,15.92,10.07,38.35l33.82,105H1114L1183,269.23Z"/><path class="cls-2" d="M1247.95,269.23l-91,227.58h58.84l13-35.76h90.07l13,35.76h58.86l-91.06-227.58Zm-1.62,144L1262.59,369c4.86-13,10.73-33.46,11-33.46h.33c.33,0,6.16,20.46,11.06,33.46l16.26,44.21Z"/><path class="cls-2" d="M1586,347.27c0-46.82-34.45-78-91.67-78h-84.86V496.81h54.62V422.7h28l42.27,74.11h61.12L1545.08,413C1571.43,400.59,1586,377.82,1586,347.27Zm-84.19,27h-37.72v-54h37.72c19.51,0,27.3,14.64,27.3,27S1521.36,374.27,1501.85,374.27Z"/><path class="cls-2" d="M1730.07,269.23h-99.51V496.81h99.51c65,0,117.69-44.54,117.69-112.81S1795.08,269.23,1730.07,269.23Zm0,176.55H1685.2V320.29h44.87c32.5,0,60.78,24.7,60.78,63.72S1762.57,445.78,1730.07,445.78Z"/><path class="cls-3" d="M1953,181.72v312c0,68.6-55.82,124.4-124.43,124.4H47V171.35C47,102.78,102.78,47,171.38,47H1822.49L1775.7,0H171.38C76.89,0,0,76.86,0,171.35V665.13H1828.6c94.5,0,171.4-76.88,171.4-171.36V228.58Z"/><rect class="cls-4" x="1342.97" width="432.73" height="46.97"/><rect class="cls-5" x="1953.03" y="228.58" width="46.97" height="272.62"/><polygon class="cls-6" points="1959.6 181.67 1775.7 181.67 1775.7 228.58 2000 228.58 1959.6 181.67"/><polygon class="cls-7" points="1822.62 40.42 1822.62 224.31 1775.7 224.31 1775.7 0 1822.62 40.42"/></g></svg>