<svg xmlns="http://www.w3.org/2000/svg" xmlns:xlink="http://www.w3.org/1999/xlink" viewBox="0 0 250 83.14"><defs><style>.cls-1{fill:#fff;}.cls-2{fill:#363d48;}.cls-3{fill:#62a5c0;}.cls-4{fill:url(#linear-gradient);}.cls-5{fill:url(#linear-gradient-2);}.cls-6{fill:url(#linear-gradient-3);}.cls-7{fill:url(#linear-gradient-4);}</style><linearGradient id="linear-gradient" x1="167.89" y1="2.96" x2="221.97" y2="2.96" gradientUnits="userSpaceOnUse"><stop offset="0.32" stop-color="#62a5c0"/><stop offset="0.92" stop-color="#47686f"/></linearGradient><linearGradient id="linear-gradient-2" x1="-1396.51" y1="-3465.73" x2="-1362.44" y2="-3465.73" gradientTransform="translate(3712.79 -1333.86) rotate(-90)" gradientUnits="userSpaceOnUse"><stop offset="0" stop-color="#62a5c0"/><stop offset="1" stop-color="#47686f"/></linearGradient><linearGradient id="linear-gradient-3" x1="224.15" y1="25.65" x2="248.42" y2="25.65" gradientUnits="userSpaceOnUse"><stop offset="0.36" stop-color="#80b541"/><stop offset="1" stop-color="#b8d672"/></linearGradient><linearGradient id="linear-gradient-4" x1="-1405.92" y1="-1613.44" x2="-1365.26" y2="-1613.44" gradientTransform="matrix(0, -1, -1, 0, -1388.54, -1366.66)" gradientUnits="userSpaceOnUse"><stop offset="0.62" stop-color="#80b541"/><stop offset="0.9" stop-color="#b8d672"/></linearGradient></defs><title>Windward_bg_rect_250x83px-02</title><g id="Layer_2" data-name="Layer 2"><path class="cls-1" d="M222,83.14H.06V28A28,28,0,0,1,28,0H222l2,25.63,26,2.93V55.17A28,28,0,0,1,222,83.14Z"/><path class="cls-2" d="M28.19,48.55l4.71-15c1.26-4,1.5-5.57,1.54-5.57h0s.33,1.55,1.59,5.57l4.71,15h2.93l9.63-28.44H49.89L43.47,39.33c-.77,2.44-1.18,4.14-1.22,4.14h0s-.36-1.71-1.22-4.14l-5-15.4H33l-5,15.4c-.85,2.44-1.18,4.14-1.22,4.14h0s-.45-1.71-1.22-4.14L19.09,20.11H15.64l9.63,28.44Z"/><rect class="cls-2" x="57.53" y="20.11" width="3.33" height="28.44"/><path class="cls-2" d="M71.74,33.64c0-4.55-.12-8.09-.08-8.09h0s1.83,2.6,4.27,6l12.64,17h3.13V20.11H88.4v15c0,4.06.12,7.88.08,7.88h0s-2.11-3-4.27-5.85l-12.64-17H68.41V48.55h3.33Z"/><path class="cls-2" d="M111.27,20.11h-12V48.55H106l3.13-3.13h-6.52V23.24h8.65c5.46,0,10.09,3.4,11.09,9l2.76-2.76A14.31,14.31,0,0,0,111.27,20.11Z"/><path class="cls-2" d="M140.62,33.67l-3.5,13.41c-.69,2.68-1.1,4.59-1.14,4.59h0s-.49-1.91-1.46-4.59l-3.94-10.73h-3.45L122.47,41l-2.24,6.1c-1,2.68-1.42,4.59-1.46,4.59h0s-.45-1.91-1.14-4.59l-.25-1-5.18,5.18,3.28,10.82h6.42L126.07,49c.9-2.8,1.22-4.79,1.26-4.79h0s.37,2,1.26,4.79l4.23,13.12h6.42l8.62-28.44Z"/><path class="cls-2" d="M156,33.67,144.64,62.11H152l1.63-4.47h11.26l1.62,4.47h7.36L162.47,33.67Zm-.2,18,2-5.52c.61-1.63,1.34-4.18,1.38-4.18h0s.77,2.56,1.38,4.18l2,5.52Z"/><path class="cls-2" d="M198.27,43.42c0-5.85-4.31-9.75-11.46-9.75h-10.6V62.11H183V52.85h3.49l5.28,9.26h7.64l-6.3-10.48A8.55,8.55,0,0,0,198.27,43.42Zm-10.52,3.37H183V40h4.71a3.37,3.37,0,1,1,0,6.75Z"/><path class="cls-2" d="M216.27,33.67H203.83V62.11h12.44c8.12,0,14.71-5.57,14.71-14.1S224.39,33.67,216.27,33.67Zm0,22.06h-5.61V40h5.61a7.57,7.57,0,0,1,7.6,8A7.37,7.37,0,0,1,216.27,55.73Z"/><path class="cls-3" d="M244.13,22.73v39a15.56,15.56,0,0,1-15.55,15.55H5.93V21.43A15.56,15.56,0,0,1,21.48,5.89H227.82L222,0H21.48A21.44,21.44,0,0,0,.06,21.43V83.14H228.58A21.44,21.44,0,0,0,250,61.73V28.59Z"/><rect class="cls-4" x="167.89" y="0.02" width="54.08" height="5.87"/><rect class="cls-5" x="244.13" y="28.59" width="5.87" height="34.07"/><polygon class="cls-6" points="244.95 22.72 221.97 22.72 221.97 28.59 250 28.59 244.95 22.72"/><polygon class="cls-7" points="227.83 5.07 227.83 28.05 221.97 28.05 221.97 0.02 227.83 5.07"/></g></svg>